# xmcd
#
# Track frame offsets: 
#        150
#        11987
#        38841
#
# Disc length: 821 seconds
#
# Revision: 0
# Processed by: cddbd v1.5.2PL0 Copyright (c) Steve Scherf et al.
# Submitted via: ExactAudioCopy v0.99pb3
#
DISCID=1e033303
DTITLE=Field Music - You're Not Supposed To
DYEAR=2006
DGENRE=Memphis Industries
TTITLE0=You're Not Supposed To
TTITLE1=You're Not Supposed To (The Matinee Orchestra remix)
TTITLE2=video
EXTD=
EXTT0=
EXTT1=
EXTT2=
PLAYORDER=
